<?xml version="1.0" encoding="utf-8"?>
<!-- Generator: Adobe Illustrator 16.0.0, SVG Export Plug-In . SVG Version: 6.00 Build 0)  -->
<!DOCTYPE svg PUBLIC "-//W3C//DTD SVG 1.1//EN" "http://www.w3.org/Graphics/SVG/1.1/DTD/svg11.dtd">
<svg version="1.1" id="Layer_1" xmlns="http://www.w3.org/2000/svg" xmlns:xlink="http://www.w3.org/1999/xlink" x="0px" y="0px"
	 width="792px" height="612px" viewBox="0 0 792 612" enable-background="new 0 0 792 612" xml:space="preserve">
<g>
	<path fill="#327338" d="M626.808,304.918c0-30.573-38.287-59.548-96.989-77.516c13.547-59.831,7.526-107.432-19.002-122.671
		c-6.115-3.575-13.265-5.268-21.073-5.268v20.979c4.328,0,7.809,0.847,10.725,2.446c12.794,7.337,18.345,35.277,14.017,71.213
		c-1.034,8.843-2.728,18.156-4.797,27.658c-18.438-4.516-38.57-7.996-59.736-10.254c-12.7-17.404-25.87-33.208-39.135-47.037
		c30.668-28.504,59.454-44.12,79.021-44.12V99.369c-25.87,0-59.736,18.438-93.979,50.423
		c-34.243-31.797-68.109-50.047-93.979-50.047v20.979c19.473,0,48.354,15.522,79.021,43.838
		c-13.17,13.829-26.34,29.539-38.852,46.942c-21.261,2.258-41.392,5.738-59.831,10.348c-2.164-9.407-3.763-18.532-4.892-27.281
		c-4.421-35.936,1.035-63.875,13.734-71.308c2.822-1.693,6.491-2.446,10.818-2.446V99.839c-7.902,0-15.051,1.693-21.26,5.268
		c-26.435,15.24-32.361,62.747-18.721,122.389c-58.513,18.062-96.613,46.942-96.613,77.422c0,30.574,38.288,59.549,96.989,77.517
		c-13.546,59.83-7.526,107.431,19.003,122.671c6.115,3.574,13.264,5.268,21.166,5.268c25.87,0,59.736-18.438,93.979-50.423
		c34.242,31.797,68.108,50.047,93.979,50.047c7.902,0,15.052-1.693,21.261-5.269c26.435-15.239,32.36-62.746,18.72-122.389
		C588.709,364.372,626.808,335.397,626.808,304.918L626.808,304.918z M504.325,242.171c-3.481,12.136-7.809,24.647-12.7,37.159
		c-3.856-7.525-7.902-15.051-12.323-22.577c-4.327-7.526-8.938-14.864-13.547-22.013
		C479.113,236.715,492.001,239.161,504.325,242.171z M461.239,342.359c-7.337,12.699-14.863,24.741-22.671,35.936
		c-14.018,1.223-28.223,1.882-42.521,1.882c-14.205,0-28.41-0.659-42.333-1.788c-7.808-11.194-15.428-23.142-22.766-35.747
		c-7.15-12.323-13.641-24.835-19.567-37.441c5.833-12.605,12.417-25.211,19.473-37.535c7.338-12.7,14.863-24.741,22.671-35.936
		c14.017-1.223,28.222-1.881,42.521-1.881c14.205,0,28.41,0.658,42.333,1.787c7.808,11.195,15.428,23.142,22.766,35.748
		c7.149,12.323,13.641,24.835,19.567,37.441C474.786,317.43,468.295,330.035,461.239,342.359L461.239,342.359z M491.625,330.13
		c5.08,12.605,9.407,25.211,12.982,37.44c-12.324,3.011-25.306,5.551-38.759,7.526c4.61-7.244,9.22-14.676,13.547-22.296
		C483.723,345.275,487.768,337.655,491.625,330.13L491.625,330.13z M396.235,430.506c-8.749-9.031-17.498-19.097-26.152-30.104
		c8.466,0.376,17.121,0.658,25.87,0.658c8.843,0,17.592-0.188,26.152-0.658C413.639,411.409,404.89,421.475,396.235,430.506z
		 M326.245,375.097c-13.358-1.976-26.247-4.422-38.57-7.432c3.481-12.136,7.808-24.647,12.7-37.159
		c3.857,7.526,7.902,15.052,12.323,22.578C317.12,360.609,321.635,367.947,326.245,375.097z M395.765,179.331
		c8.749,9.031,17.498,19.097,26.152,30.103c-8.467-0.376-17.121-0.659-25.87-0.659c-8.843,0-17.591,0.188-26.152,0.659
		C378.361,198.428,387.11,188.362,395.765,179.331z M326.151,234.74c-4.609,7.244-9.219,14.675-13.546,22.295
		c-4.328,7.526-8.373,15.052-12.229,22.577c-5.08-12.605-9.407-25.211-12.982-37.441
		C299.716,239.255,312.698,236.715,326.151,234.74L326.151,234.74z M241.015,352.52c-33.302-14.205-54.844-32.832-54.844-47.602
		s21.542-33.49,54.844-47.601c8.09-3.481,16.933-6.585,26.059-9.501c5.362,18.438,12.417,37.629,21.166,57.291
		c-8.654,19.567-15.616,38.664-20.884,57.008C258.042,359.198,249.199,356,241.015,352.52L241.015,352.52z M291.626,486.949
		c-12.794-7.338-18.344-35.277-14.017-71.213c1.035-8.843,2.728-18.156,4.797-27.657c18.438,4.515,38.57,7.996,59.736,10.254
		c12.7,17.403,25.87,33.207,39.134,47.036c-30.667,28.504-59.454,44.12-79.021,44.12
		C298.023,489.396,294.448,488.549,291.626,486.949L291.626,486.949z M514.768,415.266c4.421,35.936-1.035,63.876-13.735,71.308
		c-2.822,1.693-6.491,2.445-10.818,2.445c-19.473,0-48.354-15.521-79.021-43.838c13.171-13.828,26.341-29.539,38.853-46.942
		c21.261-2.258,41.392-5.738,59.83-10.348C512.039,397.392,513.732,406.517,514.768,415.266z M550.985,352.52
		c-8.091,3.48-16.934,6.585-26.059,9.501c-5.362-18.438-12.417-37.629-21.166-57.291c8.654-19.567,15.616-38.664,20.884-57.008
		c9.313,2.917,18.156,6.115,26.435,9.596c33.302,14.205,54.845,32.832,54.845,47.601C605.83,319.688,584.287,338.408,550.985,352.52
		L550.985,352.52z"/>
	<circle fill="#327338" cx="395.953" cy="304.918" r="42.991"/>
	<path fill="#327338" d="M489.649,99.463"/>
</g>
</svg>
